<?xml version="1.0" encoding="UTF-8"?>
<svg id="_레이어_1" data-name="레이어 1" xmlns="http://www.w3.org/2000/svg" xmlns:xlink="http://www.w3.org/1999/xlink" version="1.1" viewBox="0 0 160 240">
  <defs>
    <style>
      .cls-1 {
        fill: #898989;
      }

      .cls-1, .cls-2, .cls-3, .cls-4 {
        stroke-width: 0px;
      }

      .cls-5 {
        clip-path: url(#clippath);
      }

      .cls-2 {
        fill: #181d1f;
      }

      .cls-3 {
        fill: url(#linear-gradient);
      }

      .cls-4 {
        clip-rule: evenodd;
        fill: none;
      }
    </style>
    <clipPath id="clippath">
      <path class="cls-4" d="M150.04,78.67l-4.04,1.08c-.55.15-1.11,0-1.5-.36-.05-.05-.1-.09-.15-.15-.16-.18-.28-.4-.35-.65l-1.08-4.04c-.23-.87.29-1.77,1.15-2l4.04-1.08c.56-.15,1.13.01,1.53.38.03.03.06.06.09.09.17.19.31.42.38.68l1.08,4.04c.11.4.05.81-.12,1.15-.2.4-.57.72-1.03.85M30.94,129.34l2.09-3.62c.28-.49.79-.78,1.31-.81.07,0,.14,0,.21,0,.24.01.48.08.71.21l3.62,2.09c.78.45,1.05,1.45.6,2.23l-2.09,3.62c-.29.5-.81.79-1.35.81-.04,0-.08,0-.12,0-.26,0-.51-.08-.75-.22l-3.62-2.09c-.36-.21-.61-.53-.73-.9-.14-.43-.11-.91.13-1.33ZM21.08,119.45l4.66,2.69c1,.58,1.34,1.87.77,2.86l-2.69,4.66c-.32.56-.86.91-1.45,1.01-.1.02-.19.03-.29.03-.05,0-.11,0-.16,0-.33-.01-.66-.1-.96-.28l-4.66-2.69c-1-.58-1.34-1.87-.77-2.87l2.69-4.66c.36-.63,1.01-1,1.69-1.04.09,0,.18,0,.26,0,.08,0,.16.01.24.03.23.04.46.12.67.25ZM150.02,92.64l-1.39-5.19c-.3-1.11.37-2.27,1.48-2.57l5.19-1.39c.62-.17,1.25-.03,1.74.31.08.06.16.12.23.18.04.04.08.07.11.11.22.24.39.54.48.88l1.39,5.19c.3,1.11-.37,2.27-1.48,2.57l-5.19,1.39c-.7.19-1.42,0-1.93-.46-.07-.06-.13-.12-.19-.19-.05-.06-.1-.12-.15-.19-.13-.19-.23-.41-.3-.65ZM106.85,107.28l4.04-1.08c.56-.15,1.13.01,1.53.38.03.03.06.06.09.09.17.19.31.42.38.68l1.08,4.04c.23.87-.29,1.77-1.15,2l-4.04,1.08c-.42.11-.84.05-1.19-.14-.11-.06-.21-.13-.31-.21-.05-.05-.1-.09-.14-.15-.08-.09-.15-.2-.21-.31-.06-.11-.1-.22-.14-.35l-1.08-4.04c-.23-.87.29-1.77,1.15-2ZM130,128.39l-3.62-2.09c-.49-.28-.78-.79-.81-1.31,0-.07,0-.14,0-.21.02-.24.08-.48.21-.71l2.09-3.62c.45-.78,1.45-1.05,2.23-.6l3.62,2.09c.5.29.79.81.81,1.36,0,.04,0,.08,0,.12,0,.26-.08.51-.22.75l-2.09,3.62c-.21.36-.53.61-.9.73-.43.14-.91.11-1.33-.13ZM120.11,138.25l2.69-4.66c.58-1,1.87-1.34,2.86-.77l4.66,2.69c.56.32.91.86,1.01,1.45.02.1.03.19.03.29,0,.05,0,.11,0,.16-.01.33-.1.66-.28.96l-2.69,4.66c-.58,1-1.87,1.34-2.86.77l-4.66-2.69c-.63-.36-1-1.01-1.04-1.69,0-.09,0-.18,0-.26,0-.08.01-.16.03-.24.04-.23.12-.46.25-.67ZM79.23,118.08l3.62,2.09c.5.29.79.81.81,1.35,0,.04,0,.08,0,.12,0,.26-.08.51-.22.75l-2.09,3.62c-.45.78-1.45,1.05-2.23.6l-3.62-2.09c-.37-.22-.63-.56-.75-.95-.04-.12-.06-.24-.07-.37,0-.07,0-.14,0-.21,0-.12.03-.25.07-.37.04-.12.08-.23.15-.34l2.09-3.62c.45-.78,1.45-1.05,2.23-.6ZM79.33,9.29l1.08,4.04c.15.55,0,1.11-.36,1.5-.05.05-.09.1-.14.14-.18.16-.4.28-.65.35l-4.04,1.08c-.87.23-1.77-.29-2-1.15l-1.08-4.04c-.15-.56.01-1.13.38-1.53.03-.03.06-.06.09-.09.19-.17.42-.31.68-.38l4.04-1.08c.4-.11.81-.05,1.15.12.4.2.72.57.85,1.03ZM93.3,9.32l-5.19,1.39c-1.11.3-2.27-.37-2.57-1.48l-1.39-5.19c-.17-.62-.03-1.25.31-1.74.06-.08.12-.16.18-.23.04-.04.07-.08.11-.11.24-.22.54-.39.88-.48l5.19-1.39c1.11-.3,2.27.37,2.57,1.48l1.39,5.19c.19.7,0,1.42-.46,1.93-.06.07-.12.13-.19.19-.06.05-.12.1-.19.15-.19.13-.41.23-.65.3ZM107.94,52.49l-1.08-4.04c-.15-.56.01-1.14.38-1.53.03-.03.06-.06.09-.09.19-.17.42-.31.68-.38l4.04-1.08c.87-.23,1.76.29,2,1.15l1.08,4.04c.11.42.05.84-.14,1.19-.06.11-.13.21-.21.31-.05.05-.09.1-.15.15-.09.08-.19.15-.31.21-.11.06-.22.1-.35.14l-4.04,1.08c-.87.23-1.76-.29-2-1.15ZM129.06,29.34l-2.09,3.62c-.28.49-.79.78-1.31.81-.07,0-.14,0-.21,0-.24-.02-.48-.09-.71-.21l-3.62-2.09c-.78-.45-1.05-1.45-.6-2.23l2.09-3.62c.29-.5.81-.79,1.35-.81.04,0,.08,0,.13,0,.26,0,.51.08.75.22l3.62,2.09c.36.21.61.53.73.9.14.43.11.91-.13,1.33ZM138.92,39.23l-4.66-2.69c-1-.58-1.34-1.87-.77-2.87l2.69-4.66c.32-.56.86-.91,1.45-1.01.1-.02.19-.03.29-.03.05,0,.11,0,.16,0,.33.01.66.1.96.28l4.66,2.69c1,.58,1.34,1.87.77,2.86l-2.69,4.66c-.36.63-1.01,1-1.69,1.04-.09,0-.18,0-.26,0-.08,0-.16-.01-.24-.03-.23-.04-.45-.12-.67-.25ZM118.74,80.11l2.09-3.62c.29-.5.81-.79,1.35-.81.04,0,.08,0,.12,0,.26,0,.51.08.75.22l3.62,2.09c.78.45,1.05,1.45.6,2.23l-2.09,3.62c-.22.37-.56.63-.95.75-.12.04-.24.06-.37.07-.07,0-.14,0-.21,0-.12,0-.25-.03-.37-.07-.12-.04-.23-.08-.34-.15l-3.62-2.09c-.78-.45-1.05-1.45-.6-2.23ZM9.96,80.01l4.04-1.08c.55-.15,1.11,0,1.5.36.05.05.1.09.15.15.16.18.28.4.35.65l1.08,4.04c.23.87-.29,1.77-1.15,2l-4.04,1.08c-.56.15-1.13-.01-1.53-.38-.03-.03-.06-.06-.09-.09-.17-.19-.31-.42-.38-.68l-1.08-4.04c-.11-.4-.05-.81.12-1.15.2-.4.57-.72,1.03-.85ZM9.98,66.04l1.39,5.19c.3,1.11-.37,2.27-1.48,2.57l-5.19,1.39c-.62.17-1.25.03-1.74-.31-.08-.06-.16-.12-.23-.18-.04-.04-.08-.07-.11-.11-.22-.24-.39-.54-.48-.88l-1.39-5.19c-.3-1.11.37-2.27,1.48-2.57l5.19-1.39c.7-.19,1.42,0,1.93.46.07.06.13.12.19.19.05.06.1.12.15.19.13.19.23.41.3.65ZM53.15,51.4l-4.04,1.08c-.56.15-1.13-.01-1.53-.38-.03-.03-.06-.06-.09-.09-.17-.19-.31-.42-.38-.68l-1.08-4.04c-.23-.87.29-1.76,1.15-2l4.04-1.08c.42-.11.84-.05,1.2.14.11.06.21.13.31.21.05.05.1.09.15.14.08.09.15.2.21.31.06.11.1.22.14.35l1.08,4.04c.23.87-.29,1.76-1.15,2ZM30,30.28l3.62,2.09c.49.28.78.79.81,1.31,0,.07,0,.14,0,.21-.02.24-.09.49-.21.71l-2.09,3.62c-.45.78-1.45,1.05-2.23.6l-3.62-2.09c-.5-.29-.79-.81-.81-1.35,0-.04,0-.08,0-.13,0-.25.08-.51.22-.75l2.09-3.62c.21-.36.53-.61.9-.73.43-.14.91-.11,1.33.13ZM39.89,20.42l-2.69,4.66c-.58,1-1.87,1.34-2.86.77l-4.66-2.69c-.56-.32-.91-.86-1.01-1.45-.02-.1-.03-.19-.03-.29,0-.05,0-.11,0-.16.01-.33.1-.66.28-.96l2.69-4.66c.58-1,1.87-1.34,2.86-.77l4.66,2.69c.63.36,1,1.01,1.04,1.69,0,.09,0,.18,0,.26,0,.08-.02.16-.03.24-.04.23-.12.46-.25.67ZM80.77,40.59l-3.62-2.09c-.5-.29-.79-.81-.81-1.35,0-.04,0-.08,0-.12.01-.26.08-.51.22-.75l2.09-3.62c.45-.78,1.45-1.05,2.23-.6l3.62,2.09c.37.22.63.56.74.95.04.12.06.24.07.37,0,.07,0,.14,0,.21,0,.12-.03.25-.07.37-.03.12-.08.23-.15.34l-2.09,3.62c-.45.78-1.45,1.05-2.23.6ZM80.67,149.38l-1.08-4.04c-.15-.55,0-1.11.36-1.5.05-.05.09-.1.14-.15.18-.16.4-.28.65-.35l4.04-1.08c.87-.23,1.77.29,2,1.15l1.08,4.04c.15.56-.01,1.13-.38,1.53-.03.03-.06.06-.09.09-.19.17-.42.31-.68.38l-4.04,1.08c-.4.11-.81.05-1.15-.12-.4-.2-.72-.57-.85-1.03ZM66.7,149.36l5.19-1.39c1.11-.3,2.27.37,2.57,1.48l1.39,5.19c.17.62.03,1.25-.31,1.74-.06.08-.12.16-.18.23-.04.04-.07.08-.11.11-.24.22-.54.39-.88.48l-5.19,1.39c-1.11.3-2.27-.37-2.57-1.48l-1.39-5.19c-.19-.7,0-1.42.46-1.93.06-.07.12-.13.19-.19.06-.05.13-.1.19-.15.19-.13.41-.23.65-.3ZM52.7,119.97c3.38-3.87,5.61-8.04,6.7-12.52.23-.95.41-1.91.54-2.88.02-.15.04-.3.06-.45-3.08-11.49-.47-7.77-11.03-13.87-5.48-.91-10.66.48-15.55,4.17l-3.34,5.78c-.74,2.87-.19,5.85,1.64,8.93l3.29,1.9c.96.55,1.29,1.79.74,2.75l-2.58,4.47c-.31.53-.83.87-1.4.97-.23.04-.47.04-.71,0-.03,0-.06-.01-.09-.02-.19-.04-.38-.12-.56-.22l-.53-.31-3.94-2.27c-.96-.55-1.29-1.79-.74-2.75l2.19-3.8c.69-2.87-.12-5.6-2.45-8.17l-1.38-.79-5.36-3.09c-1.53-.88-2.06-2.86-1.18-4.39l4.12-7.14c.63-1.09,1.82-1.67,3-1.6.48.03.95.17,1.39.42l6.39,3.69c5.12-.35,9.65-1.72,13.59-4.11.83-.51,1.64-1.06,2.42-1.66.12-.09.24-.19.36-.28,5.95-10.3,5.17-5.82,2.01-17.61-3.23-4.52-7.88-7.2-13.94-8.05l-6.45,1.73c-2.55,1.51-4.27,4-5.15,7.47l.98,3.67c.29,1.07-.35,2.18-1.42,2.47l-4.99,1.34c-.6.16-1.2.03-1.68-.3-.19-.14-.36-.3-.5-.5-.02-.02-.03-.05-.05-.07-.11-.17-.19-.35-.24-.55l-.16-.6-1.18-4.39c-.29-1.07.35-2.18,1.42-2.47l4.24-1.13c2.52-1.54,3.87-4.05,4.05-7.51l-.41-1.53-1.6-5.98c-.46-1.71.57-3.48,2.27-3.94l7.97-2.13c1.22-.33,2.47.1,3.25.99.32.36.56.79.69,1.28l1.91,7.13c3.87,3.38,8.04,5.61,12.52,6.7.95.23,1.91.41,2.88.54.15.02.3.04.45.06,11.49-3.08,7.77-.47,13.87-11.03.91-5.48-.48-10.67-4.17-15.55l-5.78-3.34c-2.87-.74-5.85-.19-8.93,1.64l-1.9,3.29c-.55.96-1.79,1.29-2.75.74l-4.47-2.58c-.53-.31-.87-.83-.97-1.39-.04-.23-.04-.47,0-.71,0-.03.01-.06.02-.09.04-.19.12-.38.22-.56l.31-.53,2.27-3.94c.55-.96,1.79-1.29,2.75-.74l3.8,2.19c2.87.69,5.6-.12,8.17-2.45l.79-1.38,3.09-5.36c.88-1.53,2.86-2.06,4.39-1.18l7.14,4.12c1.09.63,1.68,1.82,1.6,3-.03.48-.17.95-.42,1.39l-3.69,6.39c.35,5.12,1.72,9.65,4.11,13.59.51.83,1.06,1.64,1.66,2.42.09.12.19.24.28.36,10.3,5.95,5.82,5.17,17.6,2.01,4.52-3.23,7.2-7.88,8.05-13.94l-1.73-6.45c-1.51-2.55-4-4.27-7.48-5.15l-3.67.98c-1.07.29-2.18-.35-2.47-1.42l-1.34-4.99c-.16-.6-.03-1.2.3-1.68.13-.19.3-.36.5-.5.02-.02.05-.03.07-.05.17-.11.35-.19.55-.24l.6-.16,4.39-1.18c1.07-.29,2.18.35,2.47,1.42l1.13,4.24c1.54,2.52,4.05,3.87,7.51,4.05l1.53-.41,5.98-1.6c1.71-.46,3.48.57,3.94,2.27l2.14,7.97c.33,1.22-.1,2.47-.99,3.25-.36.32-.79.56-1.28.69l-7.13,1.91c-3.38,3.87-5.61,8.04-6.7,12.52-.23.95-.41,1.91-.54,2.88-.02.15-.04.3-.06.45,3.08,11.49.47,7.77,11.03,13.87,5.48.91,10.66-.48,15.55-4.17l3.34-5.78c.74-2.87.19-5.85-1.64-8.93l-3.29-1.9c-.96-.55-1.29-1.79-.74-2.75l2.58-4.47c.31-.53.83-.87,1.4-.97.23-.04.47-.04.71,0,.03,0,.06.01.09.02.19.04.38.12.56.22l.53.31,3.94,2.27c.96.55,1.29,1.79.74,2.75l-2.19,3.8c-.69,2.87.13,5.59,2.45,8.17l1.38.79,5.36,3.09c1.53.89,2.06,2.86,1.18,4.4l-4.12,7.14c-.63,1.09-1.82,1.67-3,1.6-.48-.03-.95-.17-1.39-.42l-6.39-3.69c-5.12.35-9.65,1.72-13.59,4.11-.83.51-1.64,1.06-2.42,1.66-.12.09-.24.19-.36.28-5.95,10.3-5.17,5.82-2.01,17.6,3.23,4.52,7.88,7.2,13.94,8.05l6.45-1.73c2.55-1.51,4.27-4,5.15-7.47l-.98-3.67c-.29-1.07.35-2.18,1.42-2.47l4.99-1.34c.6-.16,1.2-.03,1.68.3.19.13.36.3.5.5.02.02.03.05.05.07.11.17.19.35.24.55l.16.6,1.18,4.39c.29,1.07-.35,2.18-1.42,2.47l-4.24,1.14c-2.52,1.54-3.87,4.05-4.05,7.51l.41,1.53,1.6,5.98c.46,1.71-.57,3.48-2.27,3.94l-7.97,2.14c-1.22.33-2.47-.1-3.25-.99-.32-.36-.56-.79-.69-1.28l-1.91-7.13c-3.87-3.38-8.04-5.61-12.52-6.7-.95-.23-1.91-.41-2.88-.54-.15-.02-.3-.04-.45-.06-11.49,3.08-7.77.47-13.87,11.03-.91,5.48.48,10.66,4.17,15.55l5.78,3.34c2.87.74,5.85.19,8.93-1.64l1.9-3.29c.55-.96,1.79-1.29,2.75-.74l4.47,2.58c.53.31.87.83.97,1.4.04.23.04.47,0,.71,0,.03-.01.06-.02.09-.04.19-.12.38-.22.56l-.31.53-2.27,3.94c-.55.96-1.79,1.29-2.75.74l-3.8-2.19c-2.87-.69-5.6.12-8.17,2.45l-.79,1.38-3.09,5.36c-.88,1.53-2.86,2.06-4.39,1.18l-7.14-4.12c-1.09-.63-1.67-1.82-1.6-3,.03-.48.17-.95.42-1.39l3.69-6.39c-.35-5.12-1.72-9.65-4.11-13.59-.51-.83-1.06-1.64-1.66-2.42-.09-.12-.19-.24-.28-.36-10.3-5.95-5.82-5.17-17.6-2.01-4.52,3.23-7.2,7.88-8.05,13.94l1.73,6.45c1.51,2.55,4,4.27,7.48,5.15l3.67-.98c1.07-.29,2.18.35,2.47,1.42l1.34,4.99c.16.6.03,1.2-.3,1.67-.13.19-.3.36-.5.5-.02.02-.05.03-.07.05-.17.11-.35.19-.55.24l-.6.16-4.39,1.18c-1.07.29-2.18-.35-2.47-1.42l-1.14-4.24c-1.54-2.52-4.04-3.87-7.51-4.05l-1.53.41-5.98,1.6c-1.71.46-3.48-.57-3.94-2.27l-2.14-7.97c-.33-1.22.1-2.47.99-3.25.36-.32.79-.56,1.28-.69l7.13-1.91ZM52.06,106.19l1.08,4.04c.15.56-.01,1.13-.38,1.53-.03.03-.06.06-.09.09-.19.17-.42.31-.68.38l-4.04,1.08c-.87.23-1.77-.29-2-1.15l-1.08-4.04c-.11-.42-.05-.84.14-1.2.06-.11.13-.21.21-.31.05-.05.09-.1.14-.14.09-.08.2-.15.31-.21.11-.06.22-.1.35-.14l4.04-1.08c.87-.23,1.77.29,2,1.15ZM41.25,78.57l-2.09,3.62c-.29.5-.81.79-1.35.81-.04,0-.08,0-.12,0-.26,0-.51-.08-.75-.22l-3.62-2.09c-.78-.45-1.05-1.45-.6-2.23l2.09-3.62c.22-.37.56-.63.94-.74.12-.04.24-.06.37-.07.07,0,.14,0,.21,0,.12,0,.25.03.37.07.12.04.23.08.34.15l3.62,2.09c.78.45,1.05,1.45.6,2.23Z"/>
    </clipPath>
    <linearGradient id="linear-gradient" x1="80" y1="-2.89" x2="80" y2="157.21" gradientUnits="userSpaceOnUse">
      <stop offset="0" stop-color="#2abbe7"/>
      <stop offset="1" stop-color="#8fc53e"/>
    </linearGradient>
  </defs>
  <g class="cls-5">
    <rect class="cls-3" x=".43" y="-.23" width="159.13" height="159.13"/>
  </g>
  <g>
    <g>
      <path class="cls-2" d="M13.61,189.37c5.17,0,8.74,2.01,11.34,5.62l-3.76,2.86c-1.75-2.6-4.31-3.98-7.22-3.98-4.91,0-8.41,3.65-8.41,9.71s3.5,9.74,8.41,9.74c3.31,0,5.91-1.34,7.62-3.91l3.79,2.98c-2.64,3.61-6.4,5.43-11.79,5.43-8,0-13.61-5.5-13.61-14.25s5.62-14.21,13.61-14.21Z"/>
      <path class="cls-2" d="M55.05,203.61c0,8.85-5.8,14.21-13.8,14.21s-13.8-5.36-13.8-14.21,5.8-14.25,13.8-14.25,13.8,5.39,13.8,14.25ZM33.03,203.61c0,6.25,3.38,9.74,8.22,9.74s8.22-3.5,8.22-9.74-3.38-9.78-8.22-9.78-8.22,3.53-8.22,9.78Z"/>
      <path class="cls-2" d="M66.02,217.26l-9.67-27.34h5.54l6.84,20.12,6.84-20.12h5.54l-9.67,27.34h-5.43Z"/>
      <path class="cls-2" d="M84.65,189.92h5.65v27.34h-5.65v-27.34Z"/>
      <path class="cls-2" d="M105.82,217.26h-10.12v-27.34h10.12c8.7,0,13.65,4.5,13.65,13.65s-4.95,13.69-13.65,13.69ZM105.04,194.39h-3.76v18.41h3.76c5.84,0,8.85-3.24,8.85-9.22s-3.01-9.19-8.85-9.19Z"/>
      <path class="cls-2" d="M134.01,189.92v27.34h-5.58v-19.97l-3.91,3.2-3.2-3.94,8-6.62h4.69Z"/>
      <path class="cls-2" d="M144.01,214.58c3.42-1.67,7.51-4.46,9-7.74-1.26,1.12-3.53,1.79-5.47,1.79-5.95,0-10.01-3.68-10.01-9.6s4.31-9.67,10.79-9.67c6.84,0,11.01,4.24,11.01,10.34,0,8.93-5.24,15.03-12.94,18.86l-2.38-3.98ZM148.44,193.83c-3.24,0-5.32,2.12-5.32,5.17s2.08,5.17,5.32,5.17,5.32-2.12,5.32-5.17-2.08-5.17-5.32-5.17Z"/>
    </g>
    <g>
      <path class="cls-1" d="M5.59,236.84v-3.48h1.45v3.48h7.03v1.28H0v-1.28h5.59ZM1.41,230.19h9.38c.02-.34.02-.69.02-1.03v-1.65H1.65v-1.28h10.6v2.67c0,1.98-.13,4-.34,5.93l-1.4-.1c.11-1.06.19-2.15.24-3.24H1.41v-1.28Z"/>
      <path class="cls-1" d="M16.75,229.5h8.83v-2.09h-8.83v-1.28h10.28v4.66h-8.83v2.28h9.07v1.28h-4.66v2.49h6.31v1.28h-14.07v-1.28h6.31v-2.49h-4.42v-4.85Z"/>
      <path class="cls-1" d="M31.99,226v8.77h2.04c1.53,0,3.13-.1,4.58-.27l.13,1.24c-1.56.19-3.34.32-4.93.32h-3.26v-10.05h1.45ZM41.43,225.44v4.9h2.62v1.28h-2.62v8.38h-1.45v-14.56h1.45Z"/>
      <path class="cls-1" d="M55.43,236.02c-1.35.19-2.6.27-4.19.27h-2.47v-10.13h5.88v1.28h-4.43v7.56h1.09c1.53,0,2.71-.05,4-.22l.13,1.24ZM53.47,230.37h3.28v-4.85h1.41v14.16h-1.41v-8.03h-3.28v-1.28ZM61.34,225.44v14.56h-1.41v-14.56h1.41Z"/>
      <path class="cls-1" d="M67.8,236.52c-2.55,0-4.18-1.86-4.18-5.3s1.62-5.3,4.18-5.3,4.18,1.86,4.18,5.3-1.62,5.3-4.18,5.3ZM67.8,227.2c-1.73,0-2.73,1.45-2.73,4.01s1,4.01,2.73,4.01,2.73-1.45,2.73-4.01-1-4.01-2.73-4.01ZM75.84,225.44v14.56h-1.45v-14.56h1.45Z"/>
      <path class="cls-1" d="M85.48,231.92h-5.19v3.47h2.3c1.53,0,2.86-.02,4.3-.19l.13,1.24c-1.62.21-3.07.24-4.66.24h-3.52v-10.58h7.21v1.28h-5.76v3.26h5.19v1.28ZM86.28,230.65h2.81v-5.22h1.45v14.56h-1.45v-8.06h-2.81v-1.28Z"/>
      <path class="cls-1" d="M98.13,236.13c1.69,0,3.52-.18,4.88-.48l.22,1.22c-1.45.34-3.56.55-5.65.55h-4.59v-1.28h5.14ZM102,229.85c0,2.2-1.73,3.93-4.16,3.93s-4.16-1.73-4.16-3.93,1.73-3.93,4.16-3.93,4.16,1.73,4.16,3.93ZM100.56,229.85c0-1.48-1.04-2.62-2.71-2.62s-2.71,1.14-2.71,2.62,1.04,2.62,2.71,2.62,2.71-1.14,2.71-2.62ZM105.71,225.44v14.56h-1.45v-14.56h1.45Z"/>
      <path class="cls-1" d="M123.38,233.46h-4.42v3.37h6.31v1.28h-14.07v-1.28h6.31v-3.37h-4.42v-7.24h10.28v7.24ZM114.54,232.18h7.39v-4.67h-7.39v4.67Z"/>
      <path class="cls-1" d="M140.12,232.87v1.28h-14.07v-1.28h14.07ZM127.95,235.21h1.45v3.42h9.15v1.28h-10.6v-4.71ZM128.03,225.76h10.12v1.28h-8.67v2.94h8.83v1.28h-10.28v-5.51Z"/>
      <path class="cls-1" d="M152.33,228.2c0,.37-.06.72-.16,1.04h3.4v-3.81h1.45v9.39h-1.45v-4.3h-4.06c-1.35,1.86-4.08,3.15-5.89,3.89l-.64-1.22c1.77-.75,5.91-2.78,5.91-5.01v-.92h-5.28v-1.28h6.73v2.22ZM152.7,233.64v1.4c0,1.78,3.13,3.13,5.14,3.69l-.51,1.22c-2.33-.66-4.56-1.81-5.35-3.03-.79,1.22-3.02,2.38-5.35,3.03l-.51-1.22c2.01-.56,5.14-1.86,5.14-3.69v-1.4h1.45Z"/>
    </g>
  </g>
</svg>