<?xml version="1.0" encoding="UTF-8"?>
<svg id="_레이어_1" data-name="레이어 1" xmlns="http://www.w3.org/2000/svg" xmlns:xlink="http://www.w3.org/1999/xlink" version="1.1" viewBox="0 0 112 32">
  <defs>
    <style>
      .cls-1 {
        clip-path: url(#clippath);
      }

      .cls-2, .cls-3 {
        fill: #fff;
      }

      .cls-3 {
        stroke-width: 0px;
      }
    </style>
    <clipPath id="clippath">
      <path class="cls-3" d="M30.13,15.79l-.81.22c-.11.03-.22,0-.3-.07-.01-.01-.02-.02-.03-.03-.03-.04-.06-.08-.07-.13l-.22-.81c-.05-.18.06-.36.23-.4l.81-.22c.11-.03.23,0,.31.08l.02.02s.06.08.08.14l.22.81c.02.08.01.16-.02.23-.04.08-.11.15-.21.17M6.1,26.01l.42-.73c.06-.1.16-.16.26-.16h.04s.1.02.14.04l.73.42c.16.09.21.29.12.45l-.42.73c-.06.1-.16.16-.27.16h-.02c-.05,0-.1-.02-.15-.04l-.73-.42c-.07-.04-.12-.11-.15-.18-.03-.09-.02-.18.03-.27h0ZM4.12,24.01l.94.54c.2.12.27.38.16.58l-.54.94c-.06.11-.17.18-.29.2-.02,0-.04,0-.06,0h-.03c-.07,0-.13-.02-.19-.06l-.94-.54c-.2-.12-.27-.38-.16-.58l.54-.94c.07-.13.2-.2.34-.21h.05s.03,0,.05,0c.05,0,.09.02.14.05h0ZM30.12,18.61l-.28-1.05c-.06-.22.07-.46.3-.52l1.05-.28c.13-.03.25,0,.35.06.02.01.03.02.05.04,0,0,.02.01.02.02.04.05.08.11.1.18l.28,1.05c.06.22-.07.46-.3.52l-1.05.28c-.14.04-.29,0-.39-.09-.01-.01-.03-.02-.04-.04-.01-.01-.02-.02-.03-.04-.03-.04-.05-.08-.06-.13h0ZM21.42,21.56l.81-.22c.11-.03.23,0,.31.08l.02.02s.06.08.08.14l.22.81c.05.18-.06.36-.23.4l-.81.22c-.08.02-.17.01-.24-.03-.02-.01-.04-.03-.06-.04-.01-.01-.02-.02-.03-.03-.02-.02-.03-.04-.04-.06-.01-.02-.02-.04-.03-.07l-.22-.81c-.05-.18.06-.36.23-.4h0ZM26.09,25.82l-.73-.42c-.1-.06-.16-.16-.16-.26v-.04s.02-.1.04-.14l.42-.73c.09-.16.29-.21.45-.12l.73.42c.1.06.16.16.16.27v.02c0,.05-.02.1-.04.15l-.42.73c-.04.07-.11.12-.18.15-.09.03-.18.02-.27-.03h0ZM24.09,27.81l.54-.94c.12-.2.38-.27.58-.16l.94.54c.11.06.18.17.2.29,0,.02,0,.04,0,.06v.03c0,.07-.02.13-.06.19l-.54.94c-.12.2-.38.27-.58.16l-.94-.54c-.13-.07-.2-.2-.21-.34v-.05s0-.03,0-.05c0-.05.02-.09.05-.14ZM15.84,23.74l.73.42c.1.06.16.16.16.27v.02c0,.05-.02.1-.04.15l-.42.73c-.09.16-.29.21-.45.12l-.73-.42c-.07-.04-.13-.11-.15-.19,0-.02-.01-.05-.01-.07v-.04s0-.05.01-.07c0-.02.02-.05.03-.07l.42-.73c.09-.16.29-.21.45-.12h0ZM15.86,1.79l.22.81c.03.11,0,.22-.07.3-.01.01-.02.02-.03.03-.04.03-.08.06-.13.07l-.81.22c-.18.05-.36-.06-.4-.23l-.22-.81c-.03-.11,0-.23.08-.31l.02-.02s.08-.06.14-.08l.81-.22c.08-.02.16-.01.23.02.08.04.15.11.17.21h0ZM18.68,1.8l-1.05.28c-.22.06-.46-.07-.52-.3l-.28-1.05c-.03-.13,0-.25.06-.35.01-.02.02-.03.04-.05,0,0,.01-.02.02-.02.05-.04.11-.08.18-.1l1.05-.28c.22-.06.46.07.52.3l.28,1.05c.04.14,0,.29-.09.39-.01.01-.02.03-.04.04-.01.01-.02.02-.04.03-.04.03-.08.05-.13.06h0ZM21.64,10.51l-.22-.81c-.03-.11,0-.23.08-.31,0,0,.01-.01.02-.02.04-.03.08-.06.14-.08l.81-.22c.18-.05.36.06.4.23l.22.81c.02.08.01.17-.03.24-.01.02-.03.04-.04.06-.01.01-.02.02-.03.03-.02.02-.04.03-.06.04-.02.01-.04.02-.07.03l-.81.22c-.18.05-.36-.06-.4-.23h0ZM25.9,5.84l-.42.73c-.06.1-.16.16-.26.16h-.04s-.1-.02-.14-.04l-.73-.42c-.16-.09-.21-.29-.12-.45l.42-.73c.06-.1.16-.16.27-.16h.03c.05,0,.1.02.15.04l.73.42c.07.04.12.11.15.18.03.09.02.18-.03.27h0ZM27.88,7.83l-.94-.54c-.2-.12-.27-.38-.16-.58l.54-.94c.06-.11.17-.18.29-.2.02,0,.04,0,.06,0h.03c.07,0,.13.02.19.06l.94.54c.2.12.27.38.16.58l-.54.94c-.07.13-.2.2-.34.21h-.05s-.03,0-.05,0c-.05,0-.09-.02-.14-.05h0ZM23.81,16.08l.42-.73c.06-.1.16-.16.27-.16h.02c.05,0,.1.02.15.04l.73.42c.16.09.21.29.12.45l-.42.73c-.04.07-.11.13-.19.15-.02,0-.05.01-.07.01h-.04s-.05,0-.07-.01c-.02,0-.05-.02-.07-.03l-.73-.42c-.16-.09-.21-.29-.12-.45h0ZM1.87,16.06l.81-.22c.11-.03.22,0,.3.07.01.01.02.02.03.03.03.04.06.08.07.13l.22.81c.05.18-.06.36-.23.4l-.81.22c-.11.03-.23,0-.31-.08,0,0-.01-.01-.02-.02-.03-.04-.06-.08-.08-.14l-.22-.81c-.02-.08-.01-.16.02-.23.04-.08.11-.15.21-.17h0ZM1.88,13.24l.28,1.05c.06.22-.07.46-.3.52l-1.05.28c-.13.03-.25,0-.35-.06-.02-.01-.03-.02-.05-.04,0,0-.02-.01-.02-.02-.04-.05-.08-.11-.1-.18L.01,13.74c-.06-.22.07-.46.3-.52l1.05-.28c.14-.04.29,0,.39.09.01.01.03.02.04.04.01.01.02.02.03.04.03.04.05.08.06.13h0ZM10.58,10.29l-.81.22c-.11.03-.23,0-.31-.08,0,0-.01-.01-.02-.02-.03-.04-.06-.08-.08-.14l-.22-.81c-.05-.18.06-.36.23-.4l.81-.22c.08-.02.17-.01.24.03.02.01.04.03.06.04.01.01.02.02.03.03.02.02.03.04.04.06.01.02.02.04.03.07l.22.81c.05.18-.06.36-.23.4h0ZM5.91,6.03l.73.42c.1.06.16.16.16.26v.04s-.02.1-.04.14l-.42.73c-.09.16-.29.21-.45.12l-.73-.42c-.1-.06-.16-.16-.16-.27v-.03c0-.05.02-.1.04-.15l.42-.73c.04-.07.11-.12.18-.15.09-.03.18-.02.27.03h0ZM7.91,4.04l-.54.94c-.12.2-.38.27-.58.16l-.94-.54c-.11-.06-.18-.17-.2-.29,0-.02,0-.04,0-.06v-.03c0-.07.02-.13.06-.19l.54-.94c.12-.2.38-.27.58-.16l.94.54c.13.07.2.2.21.34v.05s0,.03,0,.05c0,.05-.02.09-.05.14ZM16.16,8.11l-.73-.42c-.1-.06-.16-.16-.16-.27v-.02c0-.05.02-.1.04-.15l.42-.73c.09-.16.29-.21.45-.12l.73.42c.07.04.13.11.15.19,0,.02.01.05.01.07v.04s0,.05-.01.07c0,.02-.02.05-.03.07l-.42.73c-.09.16-.29.21-.45.12h0ZM16.14,30.05l-.22-.81c-.03-.11,0-.22.07-.3.01-.01.02-.02.03-.03.04-.03.08-.06.13-.07l.81-.22c.18-.05.36.06.4.23l.22.81c.03.11,0,.23-.08.31l-.02.02s-.08.06-.14.08l-.81.22c-.08.02-.16.01-.23-.02-.08-.04-.15-.11-.17-.21ZM13.32,30.05l1.05-.28c.22-.06.46.07.52.3l.28,1.05c.03.13,0,.25-.06.35-.01.02-.02.03-.04.05,0,0-.01.02-.02.02-.05.04-.11.08-.18.1l-1.05.28c-.22.06-.46-.07-.52-.3l-.28-1.05c-.04-.14,0-.29.09-.39.01-.01.02-.03.04-.04.01-.01.03-.02.04-.03.04-.03.08-.05.13-.06h0ZM10.49,24.12c.68-.78,1.13-1.62,1.35-2.53.05-.19.08-.39.11-.58,0-.03,0-.06.01-.09-.62-2.32-.09-1.57-2.22-2.8-1.11-.18-2.15.1-3.14.84l-.67,1.17c-.15.58-.04,1.18.33,1.8l.66.38c.19.11.26.36.15.55l-.52.9c-.06.11-.17.18-.28.2-.05,0-.09,0-.14,0,0,0-.01,0-.02,0-.04,0-.08-.02-.11-.04l-.11-.06-.79-.46c-.19-.11-.26-.36-.15-.55l.44-.77c.14-.58-.02-1.13-.49-1.65l-.28-.16-1.08-.62c-.31-.18-.42-.58-.24-.89l.83-1.44c.13-.22.37-.34.61-.32.1,0,.19.03.28.08l1.29.74c1.03-.07,1.95-.35,2.74-.83.17-.1.33-.21.49-.33.02-.02.05-.04.07-.06,1.2-2.08,1.04-1.17.41-3.55-.65-.91-1.59-1.45-2.81-1.62l-1.3.35c-.51.3-.86.81-1.04,1.51l.2.74c.06.22-.07.44-.29.5l-1.01.27c-.12.03-.24,0-.34-.06-.04-.03-.07-.06-.1-.1,0,0,0-.01-.01-.01-.02-.03-.04-.07-.05-.11l-.03-.12-.24-.89c-.06-.22.07-.44.29-.5l.86-.23c.51-.31.78-.82.82-1.51l-.08-.31-.32-1.21c-.09-.34.11-.7.46-.79l1.61-.43c.25-.07.5.02.66.2.06.07.11.16.14.26l.39,1.44c.78.68,1.62,1.13,2.53,1.35.19.05.39.08.58.11.03,0,.06,0,.09.01,2.32-.62,1.57-.09,2.8-2.22.18-1.11-.1-2.15-.84-3.14l-1.17-.67c-.58-.15-1.18-.04-1.8.33l-.38.66c-.11.19-.36.26-.55.15l-.9-.52c-.11-.06-.18-.17-.2-.28,0-.05,0-.09,0-.14,0,0,0-.01,0-.02,0-.04.02-.08.04-.11l.06-.11.46-.79c.11-.19.36-.26.55-.15l.77.44c.58.14,1.13-.02,1.65-.49l.16-.28.62-1.08c.18-.31.58-.42.89-.24l1.44.83c.22.13.34.37.32.61,0,.1-.03.19-.08.28l-.74,1.29c.07,1.03.35,1.95.83,2.74.1.17.21.33.33.49.02.02.04.05.06.07,2.08,1.2,1.17,1.04,3.55.41.91-.65,1.45-1.59,1.62-2.81l-.35-1.3c-.3-.51-.81-.86-1.51-1.04l-.74.2c-.22.06-.44-.07-.5-.29l-.27-1.01c-.03-.12,0-.24.06-.34.03-.04.06-.07.1-.1,0,0,.01,0,.01-.01.03-.02.07-.04.11-.05l.12-.03.89-.24c.22-.06.44.07.5.29l.23.86c.31.51.82.78,1.51.82l.31-.08,1.21-.32c.34-.09.7.11.79.46l.43,1.61c.07.25-.02.5-.2.66-.07.06-.16.11-.26.14l-1.44.39c-.68.78-1.13,1.62-1.35,2.53-.05.19-.08.39-.11.58,0,.03,0,.06-.01.09.62,2.32.09,1.57,2.22,2.8,1.11.18,2.15-.1,3.14-.84l.67-1.17c.15-.58.04-1.18-.33-1.8l-.66-.38c-.19-.11-.26-.36-.15-.55l.52-.9c.06-.11.17-.18.28-.2.05,0,.09,0,.14,0,0,0,.01,0,.02,0,.04,0,.08.02.11.04l.11.06.79.46c.19.11.26.36.15.55l-.44.77c-.14.58.03,1.13.49,1.65l.28.16,1.08.62c.31.18.42.58.24.89l-.83,1.44c-.13.22-.37.34-.61.32-.1,0-.19-.03-.28-.08l-1.29-.74c-1.03.07-1.95.35-2.74.83-.17.1-.33.21-.49.33-.02.02-.05.04-.07.06-1.2,2.08-1.04,1.17-.41,3.55.65.91,1.59,1.45,2.81,1.62l1.3-.35c.51-.3.86-.81,1.04-1.51l-.2-.74c-.06-.22.07-.44.29-.5l1.01-.27c.12-.03.24,0,.34.06.04.03.07.06.1.1,0,0,0,.01.01.01.02.03.04.07.05.11l.03.12.24.89c.06.22-.07.44-.29.5l-.86.23c-.51.31-.78.82-.82,1.51l.08.31.32,1.21c.09.34-.11.7-.46.79l-1.61.43c-.25.07-.5-.02-.66-.2-.06-.07-.11-.16-.14-.26l-.39-1.44c-.78-.68-1.62-1.13-2.53-1.35-.19-.05-.39-.08-.58-.11-.03,0-.06,0-.09-.01-2.32.62-1.57.09-2.8,2.22-.18,1.11.1,2.15.84,3.14l1.17.67c.58.15,1.18.04,1.8-.33l.38-.66c.11-.19.36-.26.55-.15l.9.52c.11.06.18.17.2.28,0,.05,0,.09,0,.14,0,0,0,.01,0,.02,0,.04-.02.08-.04.11l-.06.11-.46.79c-.11.19-.36.26-.55.15l-.77-.44c-.58-.14-1.13.02-1.65.49l-.16.28-.62,1.08c-.18.31-.58.42-.89.24l-1.44-.83c-.22-.13-.34-.37-.32-.61,0-.1.03-.19.08-.28l.74-1.29c-.07-1.03-.35-1.95-.83-2.74-.1-.17-.21-.33-.33-.49-.02-.02-.04-.05-.06-.07-2.08-1.2-1.17-1.04-3.55-.41-.91.65-1.45,1.59-1.62,2.81l.35,1.3c.3.51.81.86,1.51,1.04l.74-.2c.22-.06.44.07.5.29l.27,1.01c.03.12,0,.24-.06.34-.03.04-.06.07-.1.1,0,0-.01,0-.01.01-.03.02-.07.04-.11.05l-.12.03-.89.24c-.22.06-.44-.07-.5-.29l-.23-.86c-.31-.51-.81-.78-1.51-.82l-.31.08-1.21.32c-.34.09-.7-.11-.79-.46l-.43-1.61c-.07-.25.02-.5.2-.66.07-.06.16-.11.26-.14l1.44-.39h0ZM10.36,21.34l.22.81c.03.11,0,.23-.08.31,0,0-.01.01-.02.02-.04.03-.08.06-.14.08l-.81.22c-.18.05-.36-.06-.4-.23l-.22-.81c-.02-.08-.01-.17.03-.24.01-.02.03-.04.04-.06.01-.01.02-.02.03-.03.02-.02.04-.03.06-.04s.04-.02.07-.03l.81-.22c.18-.05.36.06.4.23ZM8.18,15.77l-.42.73c-.06.1-.16.16-.27.16h-.02c-.05,0-.1-.02-.15-.04l-.73-.42c-.16-.09-.21-.29-.12-.45l.42-.73c.04-.07.11-.13.19-.15.02,0,.05-.01.07-.01h.04s.05,0,.07.01c.02,0,.05.02.07.03l.73.42c.16.09.21.29.12.45h0Z"/>
    </clipPath>
  </defs>
  <g>
    <path class="cls-2" d="M30.13,15.79l-.81.22c-.11.03-.22,0-.3-.07-.01-.01-.02-.02-.03-.03-.03-.04-.06-.08-.07-.13l-.22-.81c-.05-.18.06-.36.23-.4l.81-.22c.11-.03.23,0,.31.08l.02.02s.06.08.08.14l.22.81c.02.08.01.16-.02.23-.04.08-.11.15-.21.17M6.1,26.01l.42-.73c.06-.1.16-.16.26-.16h.04s.1.02.14.04l.73.42c.16.09.21.29.12.45l-.42.73c-.06.1-.16.16-.27.16h-.02c-.05,0-.1-.02-.15-.04l-.73-.42c-.07-.04-.12-.11-.15-.18-.03-.09-.02-.18.03-.27h0ZM4.12,24.01l.94.54c.2.12.27.38.16.58l-.54.94c-.06.11-.17.18-.29.2-.02,0-.04,0-.06,0h-.03c-.07,0-.13-.02-.19-.06l-.94-.54c-.2-.12-.27-.38-.16-.58l.54-.94c.07-.13.2-.2.34-.21h.05s.03,0,.05,0c.05,0,.09.02.14.05h0ZM30.12,18.61l-.28-1.05c-.06-.22.07-.46.3-.52l1.05-.28c.13-.03.25,0,.35.06.02.01.03.02.05.04,0,0,.02.01.02.02.04.05.08.11.1.18l.28,1.05c.06.22-.07.46-.3.52l-1.05.28c-.14.04-.29,0-.39-.09-.01-.01-.03-.02-.04-.04-.01-.01-.02-.02-.03-.04-.03-.04-.05-.08-.06-.13h0ZM21.42,21.56l.81-.22c.11-.03.23,0,.31.08l.02.02s.06.08.08.14l.22.81c.05.18-.06.36-.23.4l-.81.22c-.08.02-.17.01-.24-.03-.02-.01-.04-.03-.06-.04-.01-.01-.02-.02-.03-.03-.02-.02-.03-.04-.04-.06-.01-.02-.02-.04-.03-.07l-.22-.81c-.05-.18.06-.36.23-.4h0ZM26.09,25.82l-.73-.42c-.1-.06-.16-.16-.16-.26v-.04s.02-.1.04-.14l.42-.73c.09-.16.29-.21.45-.12l.73.42c.1.06.16.16.16.27v.02c0,.05-.02.1-.04.15l-.42.73c-.04.07-.11.12-.18.15-.09.03-.18.02-.27-.03h0ZM24.09,27.81l.54-.94c.12-.2.38-.27.58-.16l.94.54c.11.06.18.17.2.29,0,.02,0,.04,0,.06v.03c0,.07-.02.13-.06.19l-.54.94c-.12.2-.38.27-.58.16l-.94-.54c-.13-.07-.2-.2-.21-.34v-.05s0-.03,0-.05c0-.05.02-.09.05-.14ZM15.84,23.74l.73.42c.1.06.16.16.16.27v.02c0,.05-.02.1-.04.15l-.42.73c-.09.16-.29.21-.45.12l-.73-.42c-.07-.04-.13-.11-.15-.19,0-.02-.01-.05-.01-.07v-.04s0-.05.01-.07c0-.02.02-.05.03-.07l.42-.73c.09-.16.29-.21.45-.12h0ZM15.86,1.79l.22.81c.03.11,0,.22-.07.3-.01.01-.02.02-.03.03-.04.03-.08.06-.13.07l-.81.22c-.18.05-.36-.06-.4-.23l-.22-.81c-.03-.11,0-.23.08-.31l.02-.02s.08-.06.14-.08l.81-.22c.08-.02.16-.01.23.02.08.04.15.11.17.21h0ZM18.68,1.8l-1.05.28c-.22.06-.46-.07-.52-.3l-.28-1.05c-.03-.13,0-.25.06-.35.01-.02.02-.03.04-.05,0,0,.01-.02.02-.02.05-.04.11-.08.18-.1l1.05-.28c.22-.06.46.07.52.3l.28,1.05c.04.14,0,.29-.09.39-.01.01-.02.03-.04.04-.01.01-.02.02-.04.03-.04.03-.08.05-.13.06h0ZM21.64,10.51l-.22-.81c-.03-.11,0-.23.08-.31,0,0,.01-.01.02-.02.04-.03.08-.06.14-.08l.81-.22c.18-.05.36.06.4.23l.22.81c.02.08.01.17-.03.24-.01.02-.03.04-.04.06-.01.01-.02.02-.03.03-.02.02-.04.03-.06.04-.02.01-.04.02-.07.03l-.81.22c-.18.05-.36-.06-.4-.23h0ZM25.9,5.84l-.42.73c-.06.1-.16.16-.26.16h-.04s-.1-.02-.14-.04l-.73-.42c-.16-.09-.21-.29-.12-.45l.42-.73c.06-.1.16-.16.27-.16h.03c.05,0,.1.02.15.04l.73.42c.07.04.12.11.15.18.03.09.02.18-.03.27h0ZM27.88,7.83l-.94-.54c-.2-.12-.27-.38-.16-.58l.54-.94c.06-.11.17-.18.29-.2.02,0,.04,0,.06,0h.03c.07,0,.13.02.19.06l.94.54c.2.12.27.38.16.58l-.54.94c-.07.13-.2.2-.34.21h-.05s-.03,0-.05,0c-.05,0-.09-.02-.14-.05h0ZM23.81,16.08l.42-.73c.06-.1.16-.16.27-.16h.02c.05,0,.1.02.15.04l.73.42c.16.09.21.29.12.45l-.42.73c-.04.07-.11.13-.19.15-.02,0-.05.01-.07.01h-.04s-.05,0-.07-.01c-.02,0-.05-.02-.07-.03l-.73-.42c-.16-.09-.21-.29-.12-.45h0ZM1.87,16.06l.81-.22c.11-.03.22,0,.3.07.01.01.02.02.03.03.03.04.06.08.07.13l.22.81c.05.18-.06.36-.23.4l-.81.22c-.11.03-.23,0-.31-.08,0,0-.01-.01-.02-.02-.03-.04-.06-.08-.08-.14l-.22-.81c-.02-.08-.01-.16.02-.23.04-.08.11-.15.21-.17h0ZM1.88,13.24l.28,1.05c.06.22-.07.46-.3.52l-1.05.28c-.13.03-.25,0-.35-.06-.02-.01-.03-.02-.05-.04,0,0-.02-.01-.02-.02-.04-.05-.08-.11-.1-.18L.01,13.74c-.06-.22.07-.46.3-.52l1.05-.28c.14-.04.29,0,.39.09.01.01.03.02.04.04.01.01.02.02.03.04.03.04.05.08.06.13h0ZM10.58,10.29l-.81.22c-.11.03-.23,0-.31-.08,0,0-.01-.01-.02-.02-.03-.04-.06-.08-.08-.14l-.22-.81c-.05-.18.06-.36.23-.4l.81-.22c.08-.02.17-.01.24.03.02.01.04.03.06.04.01.01.02.02.03.03.02.02.03.04.04.06.01.02.02.04.03.07l.22.81c.05.18-.06.36-.23.4h0ZM5.91,6.03l.73.42c.1.06.16.16.16.26v.04s-.02.1-.04.14l-.42.73c-.09.16-.29.21-.45.12l-.73-.42c-.1-.06-.16-.16-.16-.27v-.03c0-.05.02-.1.04-.15l.42-.73c.04-.07.11-.12.18-.15.09-.03.18-.02.27.03h0ZM7.91,4.04l-.54.94c-.12.2-.38.27-.58.16l-.94-.54c-.11-.06-.18-.17-.2-.29,0-.02,0-.04,0-.06v-.03c0-.07.02-.13.06-.19l.54-.94c.12-.2.38-.27.58-.16l.94.54c.13.07.2.2.21.34v.05s0,.03,0,.05c0,.05-.02.09-.05.14ZM16.16,8.11l-.73-.42c-.1-.06-.16-.16-.16-.27v-.02c0-.05.02-.1.04-.15l.42-.73c.09-.16.29-.21.45-.12l.73.42c.07.04.13.11.15.19,0,.02.01.05.01.07v.04s0,.05-.01.07c0,.02-.02.05-.03.07l-.42.73c-.09.16-.29.21-.45.12h0ZM16.14,30.05l-.22-.81c-.03-.11,0-.22.07-.3.01-.01.02-.02.03-.03.04-.03.08-.06.13-.07l.81-.22c.18-.05.36.06.4.23l.22.81c.03.11,0,.23-.08.31l-.02.02s-.08.06-.14.08l-.81.22c-.08.02-.16.01-.23-.02-.08-.04-.15-.11-.17-.21ZM13.32,30.05l1.05-.28c.22-.06.46.07.52.3l.28,1.05c.03.13,0,.25-.06.35-.01.02-.02.03-.04.05,0,0-.01.02-.02.02-.05.04-.11.08-.18.1l-1.05.28c-.22.06-.46-.07-.52-.3l-.28-1.05c-.04-.14,0-.29.09-.39.01-.01.02-.03.04-.04.01-.01.03-.02.04-.03.04-.03.08-.05.13-.06h0ZM10.49,24.12c.68-.78,1.13-1.62,1.35-2.53.05-.19.08-.39.11-.58,0-.03,0-.06.01-.09-.62-2.32-.09-1.57-2.22-2.8-1.11-.18-2.15.1-3.14.84l-.67,1.17c-.15.58-.04,1.18.33,1.8l.66.38c.19.11.26.36.15.55l-.52.9c-.06.11-.17.18-.28.2-.05,0-.09,0-.14,0,0,0-.01,0-.02,0-.04,0-.08-.02-.11-.04l-.11-.06-.79-.46c-.19-.11-.26-.36-.15-.55l.44-.77c.14-.58-.02-1.13-.49-1.65l-.28-.16-1.08-.62c-.31-.18-.42-.58-.24-.89l.83-1.44c.13-.22.37-.34.61-.32.1,0,.19.03.28.08l1.29.74c1.03-.07,1.95-.35,2.74-.83.17-.1.33-.21.49-.33.02-.02.05-.04.07-.06,1.2-2.08,1.04-1.17.41-3.55-.65-.91-1.59-1.45-2.81-1.62l-1.3.35c-.51.3-.86.81-1.04,1.51l.2.74c.06.22-.07.44-.29.5l-1.01.27c-.12.03-.24,0-.34-.06-.04-.03-.07-.06-.1-.1,0,0,0-.01-.01-.01-.02-.03-.04-.07-.05-.11l-.03-.12-.24-.89c-.06-.22.07-.44.29-.5l.86-.23c.51-.31.78-.82.82-1.51l-.08-.31-.32-1.21c-.09-.34.11-.7.46-.79l1.61-.43c.25-.07.5.02.66.2.06.07.11.16.14.26l.39,1.44c.78.68,1.62,1.13,2.53,1.35.19.05.39.08.58.11.03,0,.06,0,.09.01,2.32-.62,1.57-.09,2.8-2.22.18-1.11-.1-2.15-.84-3.14l-1.17-.67c-.58-.15-1.18-.04-1.8.33l-.38.66c-.11.19-.36.26-.55.15l-.9-.52c-.11-.06-.18-.17-.2-.28,0-.05,0-.09,0-.14,0,0,0-.01,0-.02,0-.04.02-.08.04-.11l.06-.11.46-.79c.11-.19.36-.26.55-.15l.77.44c.58.14,1.13-.02,1.65-.49l.16-.28.62-1.08c.18-.31.58-.42.89-.24l1.44.83c.22.13.34.37.32.61,0,.1-.03.19-.08.28l-.74,1.29c.07,1.03.35,1.95.83,2.74.1.17.21.33.33.49.02.02.04.05.06.07,2.08,1.2,1.17,1.04,3.55.41.91-.65,1.45-1.59,1.62-2.81l-.35-1.3c-.3-.51-.81-.86-1.51-1.04l-.74.2c-.22.06-.44-.07-.5-.29l-.27-1.01c-.03-.12,0-.24.06-.34.03-.04.06-.07.1-.1,0,0,.01,0,.01-.01.03-.02.07-.04.11-.05l.12-.03.89-.24c.22-.06.44.07.5.29l.23.86c.31.51.82.78,1.51.82l.31-.08,1.21-.32c.34-.09.7.11.79.46l.43,1.61c.07.25-.02.5-.2.66-.07.06-.16.11-.26.14l-1.44.39c-.68.78-1.13,1.62-1.35,2.53-.05.19-.08.39-.11.58,0,.03,0,.06-.01.09.62,2.32.09,1.57,2.22,2.8,1.11.18,2.15-.1,3.14-.84l.67-1.17c.15-.58.04-1.18-.33-1.8l-.66-.38c-.19-.11-.26-.36-.15-.55l.52-.9c.06-.11.17-.18.28-.2.05,0,.09,0,.14,0,0,0,.01,0,.02,0,.04,0,.08.02.11.04l.11.06.79.46c.19.11.26.36.15.55l-.44.77c-.14.58.03,1.13.49,1.65l.28.16,1.08.62c.31.18.42.58.24.89l-.83,1.44c-.13.22-.37.34-.61.32-.1,0-.19-.03-.28-.08l-1.29-.74c-1.03.07-1.95.35-2.74.83-.17.1-.33.21-.49.33-.02.02-.05.04-.07.06-1.2,2.08-1.04,1.17-.41,3.55.65.91,1.59,1.45,2.81,1.62l1.3-.35c.51-.3.86-.81,1.04-1.51l-.2-.74c-.06-.22.07-.44.29-.5l1.01-.27c.12-.03.24,0,.34.06.04.03.07.06.1.1,0,0,0,.01.01.01.02.03.04.07.05.11l.03.12.24.89c.06.22-.07.44-.29.5l-.86.23c-.51.31-.78.82-.82,1.51l.08.31.32,1.21c.09.34-.11.7-.46.79l-1.61.43c-.25.07-.5-.02-.66-.2-.06-.07-.11-.16-.14-.26l-.39-1.44c-.78-.68-1.62-1.13-2.53-1.35-.19-.05-.39-.08-.58-.11-.03,0-.06,0-.09-.01-2.32.62-1.57.09-2.8,2.22-.18,1.11.1,2.15.84,3.14l1.17.67c.58.15,1.18.04,1.8-.33l.38-.66c.11-.19.36-.26.55-.15l.9.52c.11.06.18.17.2.28,0,.05,0,.09,0,.14,0,0,0,.01,0,.02,0,.04-.02.08-.04.11l-.06.11-.46.79c-.11.19-.36.26-.55.15l-.77-.44c-.58-.14-1.13.02-1.65.49l-.16.28-.62,1.08c-.18.31-.58.42-.89.24l-1.44-.83c-.22-.13-.34-.37-.32-.61,0-.1.03-.19.08-.28l.74-1.29c-.07-1.03-.35-1.95-.83-2.74-.1-.17-.21-.33-.33-.49-.02-.02-.04-.05-.06-.07-2.08-1.2-1.17-1.04-3.55-.41-.91.65-1.45,1.59-1.62,2.81l.35,1.3c.3.51.81.86,1.51,1.04l.74-.2c.22-.06.44.07.5.29l.27,1.01c.03.12,0,.24-.06.34-.03.04-.06.07-.1.1,0,0-.01,0-.01.01-.03.02-.07.04-.11.05l-.12.03-.89.24c-.22.06-.44-.07-.5-.29l-.23-.86c-.31-.51-.81-.78-1.51-.82l-.31.08-1.21.32c-.34.09-.7-.11-.79-.46l-.43-1.61c-.07-.25.02-.5.2-.66.07-.06.16-.11.26-.14l1.44-.39h0ZM10.36,21.34l.22.81c.03.11,0,.23-.08.31,0,0-.01.01-.02.02-.04.03-.08.06-.14.08l-.81.22c-.18.05-.36-.06-.4-.23l-.22-.81c-.02-.08-.01-.17.03-.24.01-.02.03-.04.04-.06.01-.01.02-.02.03-.03.02-.02.04-.03.06-.04s.04-.02.07-.03l.81-.22c.18-.05.36.06.4.23ZM8.18,15.77l-.42.73c-.06.1-.16.16-.27.16h-.02c-.05,0-.1-.02-.15-.04l-.73-.42c-.16-.09-.21-.29-.12-.45l.42-.73c.04-.07.11-.13.19-.15.02,0,.05-.01.07-.01h.04s.05,0,.07.01c.02,0,.05.02.07.03l.73.42c.16.09.21.29.12.45h0Z"/>
    <g class="cls-1">
      <rect class="cls-3" x="-.05" y="-.13" width="32.1" height="32.1"/>
    </g>
  </g>
  <g>
    <g>
      <path class="cls-3" d="M46.45,5c2.34,0,3.95.87,5.12,2.44l-1.7,1.24c-.79-1.13-1.95-1.73-3.26-1.73-2.22,0-3.8,1.59-3.8,4.22s1.58,4.23,3.8,4.23c1.5,0,2.67-.58,3.44-1.7l1.71,1.29c-1.19,1.57-2.89,2.36-5.33,2.36-3.61,0-6.15-2.39-6.15-6.19s2.54-6.17,6.15-6.17h0Z"/>
      <path class="cls-3" d="M65.17,11.19c0,3.84-2.62,6.17-6.24,6.17s-6.24-2.33-6.24-6.17,2.62-6.19,6.24-6.19,6.24,2.34,6.24,6.19ZM55.22,11.19c0,2.72,1.53,4.23,3.71,4.23s3.71-1.52,3.71-4.23-1.53-4.25-3.71-4.25-3.71,1.53-3.71,4.25Z"/>
      <path class="cls-3" d="M70.13,17.12l-4.37-11.88h2.5l3.09,8.74,3.09-8.74h2.5l-4.37,11.88h-2.45,0Z"/>
      <path class="cls-3" d="M78.54,5.24h2.55v11.88h-2.55V5.24Z"/>
      <path class="cls-3" d="M88.11,17.12h-4.57V5.24h4.57c3.93,0,6.17,1.95,6.17,5.93s-2.24,5.95-6.17,5.95ZM87.76,7.19h-1.7v8h1.7c2.64,0,4-1.41,4-4.01s-1.36-3.99-4-3.99Z"/>
      <path class="cls-3" d="M100.85,5.24v11.88h-2.52v-8.68l-1.77,1.39-1.45-1.71,3.61-2.88h2.12Z"/>
      <path class="cls-3" d="M105.37,15.96c1.55-.73,3.39-1.94,4.07-3.36-.57.49-1.59.78-2.47.78-2.69,0-4.52-1.6-4.52-4.17s1.95-4.2,4.88-4.2c3.09,0,4.97,1.84,4.97,4.49,0,3.88-2.37,6.53-5.85,8.19l-1.08-1.73h0ZM107.37,6.94c-1.46,0-2.4.92-2.4,2.25s.94,2.25,2.4,2.25,2.4-.92,2.4-2.25-.94-2.25-2.4-2.25Z"/>
    </g>
    <g>
      <path class="cls-3" d="M42.82,25.63v-1.51h.66v1.51h3.18v.56h-6.36v-.56h2.53ZM40.93,22.74h4.24c0-.15,0-.3,0-.45v-.72h-4.14v-.56h4.79v1.16c0,.86-.06,1.74-.15,2.58l-.63-.04c.05-.46.09-.93.11-1.41h-4.22v-.56h0Z"/>
      <path class="cls-3" d="M47.87,22.44h3.99v-.91h-3.99v-.56h4.64v2.02h-3.99v.99h4.1v.56h-2.11v1.08h2.85v.56h-6.36v-.56h2.85v-1.08h-2v-2.11h0Z"/>
      <path class="cls-3" d="M54.75,20.92v3.81h.92c.69,0,1.41-.04,2.07-.12l.06.54c-.7.08-1.51.14-2.23.14h-1.47v-4.37h.66,0ZM59.02,20.67v2.13h1.18v.56h-1.18v3.64h-.66v-6.33h.66Z"/>
      <path class="cls-3" d="M65.34,25.27c-.61.08-1.17.12-1.89.12h-1.12v-4.4h2.66v.56h-2v3.28h.49c.69,0,1.22-.02,1.81-.1l.06.54h0ZM64.46,22.82h1.48v-2.11h.64v6.15h-.64v-3.49h-1.48v-.56ZM68.01,20.67v6.33h-.64v-6.33h.64Z"/>
      <path class="cls-3" d="M70.93,25.49c-1.15,0-1.89-.81-1.89-2.3s.73-2.3,1.89-2.3,1.89.81,1.89,2.3-.73,2.3-1.89,2.3ZM70.93,21.44c-.78,0-1.23.63-1.23,1.74s.45,1.74,1.23,1.74,1.23-.63,1.23-1.74-.45-1.74-1.23-1.74ZM74.56,20.67v6.33h-.66v-6.33h.66Z"/>
      <path class="cls-3" d="M78.92,23.49h-2.35v1.51h1.04c.69,0,1.29,0,1.94-.08l.06.54c-.73.09-1.39.1-2.11.1h-1.59v-4.6h3.26v.56h-2.6v1.42h2.35v.56ZM79.28,22.94h1.27v-2.27h.66v6.33h-.66v-3.5h-1.27v-.56Z"/>
      <path class="cls-3" d="M84.64,25.32c.76,0,1.59-.08,2.2-.21l.1.53c-.66.15-1.61.24-2.55.24h-2.07v-.56h2.32ZM86.38,22.59c0,.96-.78,1.71-1.88,1.71s-1.88-.75-1.88-1.71.78-1.71,1.88-1.71,1.88.75,1.88,1.71ZM85.73,22.59c0-.64-.47-1.14-1.22-1.14s-1.22.5-1.22,1.14.47,1.14,1.22,1.14,1.22-.5,1.22-1.14ZM88.06,20.67v6.33h-.66v-6.33h.66Z"/>
      <path class="cls-3" d="M96.04,24.16h-2v1.46h2.85v.56h-6.36v-.56h2.85v-1.46h-2v-3.15h4.64v3.15h0ZM92.05,23.6h3.34v-2.03h-3.34v2.03Z"/>
      <path class="cls-3" d="M103.61,23.9v.56h-6.36v-.56h6.36ZM98.11,24.92h.66v1.49h4.13v.56h-4.79v-2.05h0ZM98.15,20.81h4.57v.56h-3.92v1.28h3.99v.56h-4.64v-2.39h0Z"/>
      <path class="cls-3" d="M109.13,21.87c0,.16-.03.31-.07.45h1.54v-1.66h.66v4.08h-.66v-1.87h-1.83c-.61.81-1.84,1.37-2.66,1.69l-.29-.53c.8-.33,2.67-1.21,2.67-2.18v-.4h-2.39v-.56h3.04v.96h0ZM109.29,24.24v.61c0,.77,1.41,1.36,2.32,1.6l-.23.53c-1.05-.29-2.06-.79-2.42-1.32-.36.53-1.36,1.03-2.42,1.32l-.23-.53c.91-.24,2.32-.81,2.32-1.6v-.61h.66,0Z"/>
    </g>
  </g>
</svg>